<!DOCTYPE svg PUBLIC "-//W3C//DTD SVG 1.1//EN" "http://www.w3.org/Graphics/SVG/1.1/DTD/svg11.dtd">

<!-- Uploaded to: SVG Repo, www.svgrepo.com, Transformed by: SVG Repo Mixer Tools -->
<svg fill="#fff" version="1.1" id="Capa_1" xmlns="http://www.w3.org/2000/svg" xmlns:xlink="http://www.w3.org/1999/xlink" width="800px" height="800px" viewBox="0 0 573.796 573.796" xml:space="preserve" stroke="#ff0000">

<g id="SVGRepo_bgCarrier" stroke-width="0"/>

<g id="SVGRepo_tracerCarrier" stroke-linecap="round" stroke-linejoin="round"/>

<g id="SVGRepo_iconCarrier"> <g> <g> <path d="M186.917,450.325c-5.202-1.836-10.404-2.143-15.912-2.143c0.612-16.523,2.142-33.048,4.59-49.266 c0.918-4.896-6.426-9.486-9.18-3.672c-9.18,19.584-13.464,40.392-13.464,61.812c0,4.59,3.978,8.568,8.568,8.568 c8.262,0,16.83,0.918,24.786-1.836C193.343,461.341,193.038,452.772,186.917,450.325z"/> <path d="M240.773,413.299c-3.06-4.284-10.098-1.836-8.568,3.672c2.142,9.181,3.978,17.748,1.836,27.234 c-1.53,6.426-7.038,21.42-14.382,19.584c-7.344-1.836-5.814-17.748-4.284-23.868c2.142-9.18,7.038-15.912,12.852-23.256 c3.06-3.672-0.612-8.874-5.202-6.732c-13.464,6.426-21.42,21.42-23.562,35.802c-1.53,11.935,1.53,29.683,14.688,34.272 c14.382,5.202,25.398-11.322,29.682-22.644C249.036,443.287,249.341,425.845,240.773,413.299z"/> <path d="M311.765,430.435c-0.612-4.59-6.732-8.874-10.404-4.283c-6.12,7.344-7.649,15.3-10.71,24.174 c-1.53,4.896-4.896,18.666-8.874,26.622c-2.142-6.732-2.754-17.748-3.366-21.421c-2.142-11.321-3.672-22.949-4.59-34.271 c-0.612-6.12-9.792-6.426-9.792,0c-0.306,16.218,0.612,32.13,3.06,48.042c1.224,7.65,1.836,23.868,11.934,25.704 c11.015,2.142,15.299-11.628,18.666-19.278C303.503,462.564,313.601,445.429,311.765,430.435z"/> <path d="M368.681,437.779c-3.979-2.754-8.874-2.754-13.464-3.673c-3.061-0.611-6.12-0.918-9.181-1.529 c-0.611-4.59-6.731-7.65-9.18-2.448c-4.59,9.18-7.65,18.666-10.098,28.458c-2.143,8.874-6.12,20.196-4.896,29.682 c1.836,13.464,25.398,18.055,35.802,14.383c3.979-1.53,6.12-6.732,2.755-10.099c-3.979-3.672-6.732-4.59-12.24-5.508 c-9.181-1.836-11.017,0.306-9.486-10.098c0.306-1.837,0.612-3.979,0.918-5.814c7.038,2.754,15.3,6.12,22.032,3.366 c3.672-1.53,3.06-6.12,1.224-8.568c-2.754-3.366-6.731-3.672-11.016-4.284c-3.366-0.611-6.732-0.918-10.098-1.529 c1.224-5.814,2.142-11.935,3.365-17.748c2.448,0.918,5.202,1.836,7.65,2.754c4.284,1.53,8.874,3.978,13.464,3.672 C371.435,448.183,373.271,441.145,368.681,437.779z"/> <path d="M196.098,311.707c-6.732-4.896-13.464-9.486-19.89-14.382c-0.918-0.918-2.448,0.611-1.53,1.529 c6.426,5.202,13.158,10.099,20.502,14.383C196.098,313.543,197.016,312.319,196.098,311.707z"/> <path d="M196.709,305.893c-6.732-5.813-14.688-10.71-22.338-15.3c-0.612-0.306-1.224,0.612-0.918,0.918 c7.038,5.508,14.076,11.322,21.726,15.912C196.709,308.035,197.627,306.811,196.709,305.893z"/> <path d="M223.025,310.177c-3.06-2.448-7.038-4.284-10.71-6.426c-3.978-2.448-7.65-4.896-11.322-7.65 c-0.612-0.306-0.918-0.306-1.224,0c-3.06-2.754-6.732-4.896-10.098-7.344c-4.284-3.06-8.568-6.426-12.546-9.792 c-1.53-1.224-3.366,0.918-1.836,1.836c3.672,3.06,7.344,5.813,11.016,8.568c3.978,3.06,7.956,6.731,12.852,8.567 c0.306,0.307,0.612,0,0.918,0c0,0,0,0,0,0.307c6.732,4.896,14.076,11.321,22.338,14.076 C223.025,312.319,223.943,310.789,223.025,310.177z"/> <path d="M200.688,277.129c-0.306-0.306-0.918-0.306-1.53-0.306l0,0c-1.224-0.612-3.366-2.754-3.978-3.06 c-1.836-1.53-3.978-2.754-5.814-4.284c-3.672-2.754-7.65-5.814-11.322-8.568c-1.224-0.918-2.754,1.224-1.53,2.142 c4.284,3.672,8.874,7.344,13.464,10.71c2.448,1.836,6.732,6.732,10.404,5.814c0.306,0,0.918-0.612,0.918-0.918 C201.299,278.353,201.299,277.741,200.688,277.129z"/> <path d="M203.441,272.539c-7.956-7.038-18.054-12.24-26.928-18.36c-1.224-0.918-2.754,1.224-1.224,2.142 c8.262,6.12,17.136,13.77,26.622,17.748C203.135,274.681,204.666,273.457,203.441,272.539z"/> <path d="M204.359,264.583c-7.038-6.12-15.606-10.71-23.256-15.912c-1.53-0.918-3.06,1.53-1.53,2.448 c7.65,5.202,14.994,11.016,23.256,14.994C204.054,267.031,205.277,265.501,204.359,264.583z"/> <path d="M255.155,277.741c-0.612-0.612-1.224-0.918-1.836-0.918h-0.306c-0.306,0-0.306,0.306-0.612,0.306 c-0.612-0.612-1.224-0.918-1.836-1.224c-0.918-0.612-2.142-0.918-3.06-1.53c-1.836-0.918-3.672-1.836-5.202-2.754 c-3.672-1.836-7.344-3.978-11.322-6.12c-0.612-0.306-1.224-0.306-1.53,0c0,0,0,0,0-0.306c-0.612-0.612-0.918-1.53-1.53-2.448 c-0.612-0.918-1.53-0.612-2.142-0.306c-6.12-3.978-12.24-7.65-18.36-11.322c-1.224-0.612-2.142,0.306-2.448,1.224 c-7.65-6.426-16.524-11.628-25.092-16.524c-2.142-1.224-3.978,2.142-1.836,3.06c9.18,5.202,17.748,11.628,26.928,16.83 c0.918,0.612,1.53,0,1.836-0.918c6.732,4.284,13.158,8.568,19.89,12.546c0.612,0.306,1.224,0.306,1.836-0.306 c0,0.306,0.306,0.612,0.612,0.612c4.59,3.06,9.486,6.12,14.688,8.568c2.448,1.224,7.344,4.59,10.404,3.672 c0.612-0.306,1.224-0.612,1.224-1.224C255.768,278.965,255.768,278.659,255.155,277.741z"/> <path d="M230.37,256.627c-6.732-5.814-14.994-10.404-22.644-14.688c-0.918-0.612-2.142,0.918-1.224,1.53l0.306,0.306 c-7.038-5.202-14.688-9.792-21.726-14.994c-1.53-1.224-3.672,1.53-2.142,2.754c7.956,6.426,16.218,13.158,25.704,17.136 c1.224,0.612,2.142-0.918,1.836-2.142c5.814,4.59,12.24,9.18,18.972,11.934C230.37,259.075,231.288,257.239,230.37,256.627z"/> <path d="M238.631,237.655c-7.65-4.59-15.3-8.262-22.338-13.464c-1.53-1.224-3.06,0.306-3.06,1.836c0,0,0-0.306-0.306-0.306 c-7.038-4.896-14.076-8.568-20.196-14.382c-1.836-1.836-4.59,0.918-2.754,2.754c6.12,5.814,13.464,12.24,21.726,14.688 c1.224,0.306,1.836-0.612,1.836-1.53c0,0.306,0.306,0.612,0.306,0.612c7.038,5.202,14.688,10.098,23.256,12.852 C239.244,241.021,240.162,238.573,238.631,237.655z"/> <path d="M217.211,215.623c-6.732-4.896-13.77-8.568-20.196-14.382c-1.836-1.836-4.896,0.918-2.754,2.754 c6.12,5.814,13.464,12.24,21.726,14.688C217.823,219.295,218.742,216.541,217.211,215.623z"/> <path d="M243.833,222.049c-3.06-3.06-7.038-5.202-10.404-7.65c-4.284-3.06-8.262-6.12-12.24-9.18 c-0.612-0.612-1.224-0.306-1.836-0.306c-5.814-3.978-12.852-7.038-18.666-11.016c-2.142-1.53-3.978,1.836-2.142,3.366 c6.12,4.284,13.158,9.486,20.808,11.322c0.306,0,0.306,0,0.306,0c6.426,5.814,14.382,13.158,22.644,15.606 C243.833,224.803,245.058,222.967,243.833,222.049z"/> <path d="M217.518,336.799c-6.12-3.672-11.934-5.508-17.136-10.404c-1.224-0.918-2.754,0.612-1.836,1.836 c4.896,4.896,11.322,9.792,18.666,10.404C217.823,338.635,218.129,337.411,217.518,336.799z"/> <path d="M219.354,328.843c-6.426-4.284-13.158-8.568-19.89-11.934c-0.918-0.307-1.836,0.611-1.224,1.529 c5.814,4.896,12.852,9.181,19.89,12.24C219.66,330.985,220.578,329.455,219.354,328.843z"/> <path d="M221.801,319.356c-6.732-4.59-14.382-7.955-21.42-11.934c-1.224-0.612-2.142,1.224-0.918,1.836 c7.038,3.979,13.77,8.874,21.42,12.24C221.801,321.805,223.025,320.274,221.801,319.356z"/> <path d="M226.085,303.445c-6.732-6.12-14.994-10.404-22.644-14.994c-1.53-0.919-2.754,1.224-1.224,2.142 c7.344,4.896,14.688,10.404,22.338,14.382C225.779,305.893,227.003,304.363,226.085,303.445z"/> <path d="M227.31,295.795c-6.732-5.508-14.688-9.486-22.032-14.382c-1.53-0.918-2.754,1.224-1.224,2.142 c6.732,4.896,14.076,10.404,22.032,13.771C227.003,297.937,228.228,296.713,227.31,295.795z"/> <path d="M251.178,293.959c-0.306,0-0.612,0-0.612,0c-0.306-0.306-0.612-0.306-1.224-0.612c-0.918-0.611-2.142-0.918-3.06-1.529 c-1.836-0.919-3.672-1.837-5.508-2.755c-3.978-1.836-7.956-3.978-11.934-5.813c-1.224-0.612-2.448,0.306-2.448,1.53 c-6.12-4.284-12.852-7.956-18.666-12.852c-1.224-0.918-3.06,0.612-1.836,1.836c6.12,5.508,12.852,11.322,20.196,14.382 c1.224,0.612,1.836-0.612,1.836-1.53c5.202,2.448,10.098,5.203,15.3,7.65c2.754,1.225,6.426,4.59,9.486,3.061 c0.612-0.307,0.918-1.225,0.918-2.143C252.401,294.571,251.79,294.265,251.178,293.959z"/> <path d="M253.625,287.532c-0.918-0.918-2.142-2.141-3.06-3.365c-0.612-0.612-1.836-0.306-2.142,0.612 c-7.038-3.672-13.77-7.038-20.808-11.016c-0.612-0.306-0.918,0-1.224,0.306c-7.038-4.284-14.076-7.956-20.196-14.076 c-1.836-1.836-4.284,0.918-2.754,2.754c6.12,6.426,14.076,12.852,22.95,14.994c0.918,0.306,1.53-0.306,1.836-0.918 c7.344,4.896,14.994,9.486,22.95,13.464C253.319,290.898,255.155,289.062,253.625,287.532z"/> <path d="M258.828,256.627c-4.59,0.306-10.404-4.59-14.382-6.12c-3.672-1.53-7.65-2.754-11.322-3.978 c-5.508-4.59-11.628-7.956-16.83-12.852c-1.836-1.836-4.59,0.918-2.754,2.754c5.508,5.202,12.24,11.628,19.89,14.076 c0.612,0.306,1.224,0,1.53-0.612c5.508,1.836,10.404,3.978,15.606,7.038c3.06,1.836,6.426,4.59,9.792,1.836 C260.664,258.157,260.051,256.627,258.828,256.627z"/> <path d="M230.675,228.781C230.981,228.781,230.981,228.475,230.675,228.781"/> <path d="M242.609,230.005c-5.814-6.12-14.076-10.71-20.808-15.3c-2.142-1.224-3.672,1.836-1.836,3.06 c6.732,4.896,13.464,11.016,21.114,14.382C242.304,233.065,243.833,231.229,242.609,230.005z"/> <path d="M246.587,348.732c-8.568-2.447-15.912-5.508-22.644-11.321c-1.224-0.918-3.06,0.611-1.836,1.836 c6.732,6.12,14.994,10.71,24.174,11.628C247.505,351.487,247.812,349.345,246.587,348.732z"/> <path d="M247.505,338.022c-0.612-0.611-1.224-1.224-1.836-1.836c-0.612-0.611-1.224-0.306-1.224,0.307 c-6.12-2.754-11.934-5.814-17.748-9.486c-1.224-0.612-2.142,0.918-0.918,1.836c6.426,4.284,13.464,8.568,20.808,11.016 C247.505,340.471,248.118,338.635,247.505,338.022z"/> <path d="M247.2,329.148c-3.06-2.142-6.732-3.365-10.098-5.201c-3.366-1.53-6.732-3.366-10.098-5.509 c-1.224-0.611-2.448,1.225-1.224,2.143c5.814,3.672,13.464,9.18,20.502,10.404C247.505,330.985,248.118,329.761,247.2,329.148z"/> <path d="M277.799,331.903c-0.918-2.448-2.142-3.673-4.59-4.591c-0.918-0.306-1.53,0.612-1.53,1.225 c-6.732-3.061-13.77-6.12-20.502-9.181c-0.306-0.918-0.612-1.224-1.53-1.529c-0.306,0-0.918,0-1.224,0.306 c-2.448,0-7.344-2.754-9.18-3.366c-3.978-1.529-7.956-3.672-11.934-5.508c-1.53-0.918-3.06,1.53-1.53,2.448 c4.896,2.754,10.098,5.202,15.3,7.649c2.448,0.918,7.038,3.979,9.486,2.143c0,0,0-0.307,0.306-0.307 c8.262,4.284,16.524,8.263,24.48,12.24C276.576,334.351,278.105,333.433,277.799,331.903z"/> <path d="M279.33,323.029c-8.262-5.202-18.36-8.263-27.234-12.24c-0.612-0.306-1.224,0-1.53,0.612 c-7.344-3.979-15.3-7.038-22.95-10.099c-1.224-0.612-2.142,1.225-0.918,1.836c7.65,3.672,15.3,7.956,23.562,11.017 c0.612,0.306,1.224,0,1.224-0.612c8.568,4.284,17.748,10.098,27.234,11.934C279.635,325.477,280.554,323.947,279.33,323.029z"/> <path d="M280.554,315.073c-1.224-2.448-2.448-3.366-4.896-4.896c-0.918-0.612-2.142,0.918-1.224,1.53l0,0 c-7.344-3.366-14.688-6.426-22.032-9.792c-0.918-0.307-1.53,0-1.836,0.612c-3.366-2.143-7.038-3.061-10.404-4.896 c-3.672-1.836-7.344-4.284-11.016-6.732c-1.53-0.918-3.366,1.225-2.142,2.448c3.672,3.061,7.65,5.814,11.628,7.956 c3.672,2.143,7.956,4.59,11.934,4.59c0.918,0,1.53-0.611,1.53-1.224c8.568,4.59,17.442,8.874,26.316,12.24 C280.248,318.133,281.166,316.297,280.554,315.073z"/> <path d="M253.625,265.195c-1.53-1.224-2.754-2.754-4.284-3.672c-0.612-0.306-1.224-0.306-1.53,0.306 c-2.448-1.224-4.896-2.754-7.344-4.284c-2.754-1.53-4.896,2.448-2.448,3.978c4.284,2.754,8.568,5.814,13.77,7.038 C253.319,269.173,255.155,266.419,253.625,265.195z"/> <path d="M262.806,247.141c-2.448-2.754-5.202-5.202-7.956-7.65c-1.53-1.224-3.06,1.224-1.836,2.448l0,0 c-3.978-2.142-7.956-4.896-11.628-8.262c-2.142-1.836-4.896,1.224-3.06,3.06c6.426,6.12,13.77,11.016,22.338,13.77 C262.806,251.731,264.029,248.977,262.806,247.141z"/> <path d="M339.611,282.637c-3.366-2.754-7.649-4.896-11.628-7.038c-4.284-2.448-8.262-5.202-12.546-8.262 c-0.918-0.612-1.53-0.306-1.836,0.306c-0.918-0.918-1.836-1.53-2.754-2.448c-0.918-0.612-1.836-0.306-2.143,0.612 c-5.813-3.06-11.628-6.12-17.441-9.18c0-0.306-0.307-0.918-0.612-1.224c-3.06-2.448-5.813-5.202-9.485-7.038 c-0.612-0.306-1.224,0-1.53,0.612c-4.59-2.142-9.18-4.284-13.77-6.12c1.224-0.612,1.836-2.142,0.612-3.366 c-1.224-0.918-2.142-2.142-3.366-3.06c-0.612-0.612-1.224-0.306-1.836-0.306c-5.508-3.672-11.322-7.038-17.442-10.098 c-2.142-0.918-3.978,1.836-1.836,3.06c7.344,4.284,14.688,8.874,21.726,13.464c0.306,0,0.306,0,0.612,0 c-0.918,0.612-1.224,2.142,0,2.448c8.262,3.978,15.606,8.568,23.562,12.852c0.306,0.306,0.918,0.306,1.224,0.306 c7.65,4.59,15.606,9.18,23.562,13.158c0.612,0.306,1.224,0,1.836-0.306c7.038,5.202,14.688,11.322,22.95,13.77 C339.305,285.697,340.835,283.861,339.611,282.637z"/> <path d="M275.658,348.121c-7.956-4.896-18.054-7.65-26.928-11.017c-0.918-0.306-1.836,1.53-0.918,1.836 c8.568,3.673,17.748,9.181,26.928,11.322C276.27,350.263,276.881,348.732,275.658,348.121z"/> <path d="M278.105,339.858c-2.142-1.529-4.284-3.06-6.426-4.59c-0.918-0.611-1.836,0.612-1.224,1.53 c-6.426-2.754-13.158-5.508-19.584-7.956c-0.918-0.306-1.53,1.225-0.612,1.53c8.874,3.978,17.442,8.262,26.316,12.24 C278.412,343.225,279.635,341.083,278.105,339.858z"/> <path d="M281.777,302.527c-0.612-0.612-1.53-0.612-2.142,0c-8.262-4.284-16.524-8.263-25.092-12.24 c-1.53-0.612-2.754,1.224-1.224,2.142c8.874,4.896,17.748,10.099,26.622,14.688c1.224,0.611,2.754,0,2.754-1.53 C283.001,304.057,282.695,303.445,281.777,302.527z"/> <path d="M283.919,293.653c-7.956-3.979-15.912-7.039-23.562-11.628c-2.142-1.224-4.284,2.142-2.142,3.366 c7.65,4.59,15.606,9.181,24.48,11.322C284.531,297.325,285.755,294.571,283.919,293.653z"/> <path d="M281.166,285.391c-0.612-1.836-1.224-2.754-2.754-3.978c-0.918-0.612-1.836,0-2.142,0.918 c-8.262-3.672-16.524-7.344-24.48-11.934c-1.836-0.918-3.672,1.836-1.836,3.06c9.18,5.202,18.972,10.404,29.07,14.075 C280.248,288.145,281.777,286.614,281.166,285.391z"/> <path d="M285.45,277.435c-0.918-1.836-2.142-2.754-3.978-3.978c-0.612-0.306-1.53,0-2.142,0.612 c-7.65-3.672-14.994-7.65-22.338-11.628c-1.53-0.918-2.754,1.224-1.224,2.142c8.874,5.508,17.748,10.71,27.234,15.3 C284.531,280.801,286.368,279.271,285.45,277.435z"/> <path d="M285.755,263.665C285.755,263.665,285.45,263.665,285.755,263.665c-0.918-0.612-1.53-0.306-2.142,0.306 c-0.918-1.224-7.65-4.284-8.568-4.896c-3.366-2.142-6.732-4.59-9.792-7.344c-1.53-1.224-3.672,0.918-2.142,2.142 c3.672,3.672,7.65,6.732,12.24,9.486c2.448,1.53,7.344,5.202,10.404,3.978c0.918-0.306,1.224-0.918,1.53-1.836 c0-0.306,0-0.306,0-0.612C286.979,264.583,286.368,263.971,285.755,263.665z"/> <path d="M317.273,257.545c-0.612-1.224-0.918-1.53-1.836-2.142c-0.612-0.306-1.224-0.306-1.53,0.306 c-7.956-3.366-15.605-6.426-23.256-10.71c-0.612-0.306-1.224-0.306-1.836,0l0,0c-5.813-5.202-14.994-7.956-21.726-11.322 c-2.142-0.918-4.284,2.142-2.142,3.366c3.979,2.142,7.65,3.978,11.628,5.814c3.366,1.836,7.038,3.978,10.71,4.59 c0.306,0,0.611,0,0.917,0c0,0.306,0.307,0.306,0.307,0.612c8.262,4.896,17.136,9.486,26.315,12.24 C316.661,260.911,317.885,258.769,317.273,257.545z"/> <path d="M309.317,320.887c-8.568-3.978-17.748-7.038-26.009-11.628c-1.836-0.918-3.366,1.53-1.53,2.754 c8.261,4.896,17.135,9.792,26.316,11.628C309.623,323.947,310.847,321.499,309.317,320.887z"/> <path d="M313.295,309.564c-10.099-2.754-18.666-5.201-26.316-12.239c-1.53-1.53-4.284,0.918-2.448,2.447 c7.344,7.038,18.054,13.158,28.458,12.547C314.519,312.625,314.825,310.177,313.295,309.564z"/> <path d="M313.907,298.243c-0.611-0.612-1.224-1.53-1.836-2.143c-0.611-0.918-1.529-0.306-1.836,0.307 c-7.649-3.366-15.3-7.038-22.644-11.322c-1.836-1.224-3.672,1.836-1.836,3.06c8.262,5.202,17.136,10.099,26.622,13.158 C313.907,301.608,315.131,299.467,313.907,298.243z"/> <path d="M314.825,290.898c-0.611-1.529-0.611-1.836-2.142-2.754c-0.612-0.306-1.224-0.306-1.53,0.307 c-6.731-3.06-13.158-6.426-19.277-10.71c-1.53-1.224-3.061,1.53-1.53,2.754c6.731,4.896,14.382,9.485,22.338,12.24 C313.907,293.347,315.131,292.123,314.825,290.898z"/> <path d="M313.907,280.189c-0.918-0.918-2.142-1.836-3.06-2.754c-0.612-0.612-1.53-0.306-2.143,0.306 c-6.119-2.754-11.934-5.814-17.748-9.18c-2.142-1.224-3.977,1.836-1.836,3.366c7.345,4.59,14.688,8.568,22.645,11.628 C313.907,283.861,315.131,281.413,313.907,280.189z"/> <path d="M320.945,226.639c-0.306,0-0.306-0.306-0.612-0.306c-0.611-0.306-1.224-0.306-1.836-0.306 c-0.306-0.306-0.611-0.612-1.529-0.612c-1.225-0.612-2.143-1.224-3.366-2.142c-2.142-1.224-3.979-2.142-6.12-3.366 c-4.284-2.448-8.568-4.896-13.158-7.038c-1.529-0.918-2.754,1.53-1.529,2.448c4.896,3.06,10.098,6.426,14.993,9.486 c3.061,1.836,7.345,5.814,11.017,5.508c0.918,0,1.529-0.612,1.836-1.53c0-0.306,0-0.306,0.306-0.612 C321.557,227.863,321.25,226.945,320.945,226.639z"/> <path d="M348.179,236.125c-3.061-2.448-7.038-3.978-10.404-5.814c-1.836-0.918-3.978-2.142-5.813-3.06 c-1.225-0.612-5.509-2.448-5.814-3.978c-0.306-1.53-1.53-1.836-2.754-1.224c0-0.306,0-0.612-0.306-1.224 c-0.918-0.918-1.837-1.836-2.448-3.06c-0.612-0.918-1.53-0.612-2.143,0.306c-5.201-3.06-10.71-5.814-16.523-8.568 c-1.53-0.612-3.061,1.53-1.53,2.448c6.732,3.672,13.464,7.956,20.196,11.628c0.611,0.306,0.918,0.306,1.53,0v0.306 c0.611,3.978,7.344,6.426,10.403,8.262c4.59,2.448,9.486,5.508,14.688,6.12C348.485,238.879,349.403,236.737,348.179,236.125z"/> <path d="M348.485,224.497c-7.344-5.202-15.605-8.874-22.95-14.076c-0.611-0.306-0.918-0.306-1.529,0c0-0.306,0-0.612-0.307-0.918 c-0.918-0.918-1.836-1.836-2.448-2.754c-0.918-0.918-2.142-0.306-2.447,0.306c-6.12-2.448-11.935-5.508-17.748-8.568 c-1.53-0.612-3.366,1.224-1.836,2.448c6.731,5.202,14.688,9.18,22.644,11.934c0.612,0.306,1.225,0,1.53,0c0,0,0,0.306,0.306,0.306 c7.038,5.508,15.3,11.628,23.868,14.382C349.097,228.475,350.015,225.721,348.485,224.497z"/> <path d="M331.961,332.515c-0.612-1.529-1.53-2.447-3.061-3.06c-0.918-0.307-1.53,0-1.53,0.612 c-4.896-2.143-9.792-4.284-14.688-6.427c-1.53-0.611-2.754,1.53-1.224,2.143c6.426,2.754,12.852,6.12,19.277,8.567 C331.655,334.963,332.267,333.433,331.961,332.515z"/> <path d="M336.551,326.089c-0.918-0.918-2.143-1.836-3.366-2.448c-0.612-0.611-1.224-0.306-1.53,0.307 c-6.426-2.755-12.852-5.814-19.277-9.181c-1.225-0.611-2.448,1.225-1.225,1.836c7.65,4.284,15.3,8.263,23.562,11.628 C335.939,329.148,337.775,327.312,336.551,326.089z"/> <path d="M337.775,317.827c-0.306-0.307-0.918-0.612-1.53-0.307h-0.306l-0.306,0.307c-1.53-0.918-3.672-2.143-3.672-2.143 c-1.225-0.611-2.448-1.224-3.673-1.836c-2.754-1.529-5.201-2.754-7.955-4.59c-1.53-0.918-2.448,1.225-1.225,2.143 c3.672,2.447,7.344,4.896,11.322,6.731c1.836,0.918,4.896,3.06,6.731,2.142c0.612-0.306,0.918-0.611,0.918-1.224 C338.387,318.745,338.387,318.133,337.775,317.827z"/> <path d="M335.021,290.898c-6.12-4.284-12.24-7.649-18.054-12.545c-1.53-1.53-3.979,0.918-2.448,2.448 c5.508,5.202,11.934,10.404,19.278,12.853C335.633,294.265,336.245,291.817,335.021,290.898z"/> <path d="M340.835,275.599c-6.427-5.508-14.688-9.486-22.032-13.77c-2.143-1.224-3.979,2.142-1.836,3.366 c7.038,4.59,14.382,10.098,22.338,13.158C340.529,278.965,341.753,276.823,340.835,275.599z"/> <path d="M387.041,219.907c-8.262-26.01-28.151-52.938-56.915-56.304c-33.967-3.978-57.834,22.338-64.566,52.632 c-21.42-57.222-102.204-70.992-115.974,1.224c-15.912,82.926,42.534,164.016,129.744,154.836 C353.687,364.645,410.909,294.571,387.041,219.907z M346.955,243.163c8.568,5.814,17.137,12.24,26.011,17.442 c0,1.224,0,2.754,0,3.978c-1.225-1.224-2.754-2.448-4.284-3.672c-1.225-0.918-2.448,0.612-2.143,1.836 c-6.119-3.978-12.239-8.262-18.666-11.628c-1.529-0.918-3.06,1.224-1.836,2.448c8.263,6.426,17.137,12.24,26.011,18.054 c0,0.918-0.307,1.53-0.307,2.448c-0.611,0-1.224,0.306-1.529,1.224c-8.263-4.284-16.219-8.874-23.868-14.382 c-1.836-1.224-3.366,1.53-1.53,2.754c7.956,6.12,16.524,11.934,25.704,16.218c0,0.612-0.306,1.224-0.306,1.836 c0,0-0.307,0-0.307-0.306c-0.918-0.918-2.142-0.306-2.447,0.612c-8.874-4.896-17.442-10.098-26.011-15.606 c-0.611-0.306-0.918-0.306-1.529,0c0.918-0.612,1.224-2.142,0-2.754c-6.732-3.366-13.158-6.732-18.973-11.934 c-1.836-1.53-4.59,0.918-2.754,2.754c5.814,5.508,12.546,10.098,20.196,12.24c0.306,0,0.918,0,1.224,0 c-0.611,0.612-0.918,1.836,0,2.754c9.181,6.426,18.666,12.24,28.458,17.748c-0.918,2.448-1.836,4.896-2.754,7.345 c-8.568-4.591-17.136-9.486-25.397-14.382c-1.225-0.918-2.448,1.224-1.225,2.142c8.262,5.201,16.524,10.404,25.092,15.3 c-0.918,1.836-1.529,3.366-2.447,5.202c-4.591-2.448-8.874-5.202-13.465-7.65c-2.754-1.529-6.119-4.896-9.18-3.06 c-0.918,0.612,0,1.836,0.918,1.224c2.448-1.224,10.404,5.508,12.546,7.038l7.956,4.896c-0.611,1.224-1.53,2.447-2.142,3.672 c-0.307,0-0.307-0.307-0.307-0.307c-0.918-0.611-1.836,0.612-1.529,1.53c-4.896-1.836-9.792-3.978-14.688-6.731 c-0.306-0.307-0.611,0-0.918,0c0-0.307-0.306-0.918-0.612-0.918c-6.426-4.591-14.075-7.956-21.42-11.628 c-1.529-0.919-2.754,1.529-1.529,2.447c4.284,2.754,8.567,6.426,12.546,10.099c-4.284-2.448-8.568-4.591-12.853-7.038 c-1.836-0.918-3.365,1.529-1.529,2.754c6.731,4.284,13.77,8.874,21.42,12.24c1.529,0.611,3.672-1.225,2.142-2.755 c-3.06-2.754-6.12-5.508-9.486-8.262c3.061,1.836,6.12,3.366,9.486,4.59c0.612,0.307,0.918,0,1.224-0.306 c0,0.306,0,0.306,0.307,0.612c4.896,3.06,9.792,5.508,14.994,7.649c-0.918,1.225-1.836,2.754-2.754,3.979 c-4.896-1.53-12.547-3.672-13.465-3.979c-1.529-0.611-2.142,1.836-0.611,2.448c3.366,1.224,6.426,2.142,9.792,3.366 c0.611,0.306,1.53,0.611,2.142,0.918c-7.038,8.262-15.605,15.3-24.786,20.808c-3.978-2.448-8.567-3.978-13.157-5.508 c0-0.306,0-0.612-0.612-0.918c-8.568-4.284-18.36-7.038-27.234-10.71c-1.224-0.612-1.836,1.224-1.224,1.836 c2.754,3.672,6.425,6.12,10.404,8.874c2.447,1.836,5.201,3.672,7.649,5.508c-5.813-1.836-11.628-3.672-17.748-5.508 c-0.918-0.306-1.53,1.224-0.306,1.53c8.874,3.06,17.441,6.426,26.315,9.485c1.53,0.612,2.448-1.836,1.225-2.754 c-4.284-3.06-8.568-5.813-12.853-8.567c-2.447-1.53-5.201-3.366-7.649-5.202c5.813,2.754,11.628,5.202,17.748,7.038 c0,0.306,0.306,0.611,0.611,0.611c4.591,1.836,9.486,4.284,14.383,5.814c-6.12,3.672-12.547,6.732-19.278,8.874 c0-0.306,0-0.918-0.306-1.224c-6.427-4.591-14.688-7.345-21.726-10.404c-0.918-0.306-1.53,0.918-0.612,1.224 c7.037,3.366,14.075,8.263,21.42,11.017c-1.225,0.306-2.448,0.918-3.979,1.529c-0.306-0.611-0.612-0.918-0.918-1.529 c-0.918-0.918-2.142,0.306-1.53,1.224c0,0.306,0.307,0.612,0.307,0.918h-0.307c-5.202-1.836-10.403-3.672-15.299-5.508 c-1.224-0.612-1.836,1.53-0.612,2.142c3.978,1.53,7.649,3.061,11.628,4.59c-1.225,0.307-2.143,0.612-3.061,0.918 c-3.671,0.918-7.649,1.225-11.321,1.53c0-0.612,0-0.918-0.306-1.53c-1.224-1.224-2.754-2.142-3.978-3.06 c-0.918-0.612-1.53,0-1.836,0.918c-6.12-2.142-12.24-4.59-18.36-7.344c-1.53-0.612-3.06,1.53-1.224,2.448 c7.038,3.365,14.076,6.426,21.42,9.18c-3.366,0.306-6.426,0.306-9.792,0.306c-4.284-0.918-8.874-1.836-13.158-2.754 c-0.612,0-1.224,0.918-0.612,1.224c0.306,0.307,0.612,0.307,1.224,0.612c-29.376-3.978-54.774-19.89-70.38-46.512 c5.202,4.59,10.404,8.874,15.912,12.852c0.918,0.612,1.836-0.611,1.224-1.529c-5.814-5.202-12.546-10.404-18.972-14.994 c-2.754-4.896-5.202-10.404-7.038-15.912c-0.918-2.448-1.53-4.896-2.448-7.65c1.836,1.836,3.366,3.672,5.202,5.508 c1.224,1.225,2.754-0.611,1.836-1.836c-3.06-3.06-5.508-6.426-8.568-9.792c-0.612-2.754-1.224-5.508-1.836-8.262 c3.978,3.672,7.956,7.038,12.24,9.792c0.612,0.306,1.53-0.612,0.918-1.224c-0.306-0.306-0.918-0.918-1.224-1.224 c7.65,5.202,15.606,10.709,23.868,14.688c0.918,0.612,2.448-0.918,1.224-1.836c-7.344-5.814-16.218-10.404-24.48-14.994 c-1.224-0.612-2.142,0.918-1.224,1.836c-3.978-3.672-7.956-7.038-11.934-10.404c-0.612-3.06-0.918-6.12-1.224-9.18 c3.06,3.06,6.12,6.12,8.874,9.486c0.918,0.918,2.142-0.306,1.53-1.53c-3.06-3.978-6.732-7.65-10.71-10.71c0-1.224,0-2.448,0-3.672 c3.366,3.672,7.038,7.344,11.016,10.404c1.224,0.918,2.448-0.612,1.53-1.53c-3.978-4.284-8.262-8.262-12.546-12.24 c0-2.754,0-5.508,0.306-8.262c4.284,4.284,8.874,8.262,14.076,11.322c1.224,0.612,2.448-0.918,1.53-1.836 c-4.896-4.284-10.098-8.568-14.994-13.158c0.306-2.448,0.612-4.896,1.224-7.344c3.672,3.978,7.65,7.956,11.934,11.016 c1.53,0.918,2.754-1.224,1.836-2.142c-3.978-4.59-8.262-8.874-12.546-12.852c0.612-2.142,1.224-3.978,2.142-5.814 c3.978,4.896,8.568,9.792,13.464,13.464c1.53,1.224,3.06-1.224,2.142-2.754c-4.284-5.202-8.874-10.098-13.464-14.994 c0.612-0.918,0.918-1.53,1.53-2.448c4.896,5.508,9.792,11.016,15.3,15.912c0.612,0.612,1.224,0.612,1.836,0 c6.732,5.202,13.77,10.71,22.032,13.464c1.836,0.612,2.448-1.836,1.224-2.754c-6.732-4.896-14.076-8.568-20.808-13.77 c-0.918-0.612-2.142-0.612-2.754,0c-4.59-5.814-9.792-11.016-14.994-16.218c0.612-0.918,0.918-1.224,1.53-2.142 c4.896,4.896,9.486,9.792,14.994,14.076c1.224,0.918,2.754-0.612,1.836-1.836c-4.59-5.202-9.792-10.098-14.994-14.688 c0.612-0.918,1.53-1.53,2.142-2.448c4.284,4.59,9.18,8.874,14.994,10.71c1.53,0.612,2.448-1.836,1.224-2.448 c-5.202-3.366-9.792-6.426-14.076-10.404c1.53-1.53,3.06-2.754,4.284-3.978c3.366,3.06,6.732,5.814,10.404,7.65 c1.53,0.612,3.06-0.918,1.836-2.142c-2.754-2.754-5.814-5.508-8.874-7.956c1.224-0.918,2.448-1.53,3.978-2.142 c3.06,2.448,6.12,4.59,9.18,6.426c0.918,0.612,1.836,0,2.142-0.612c7.038,3.366,13.464,8.262,20.502,11.322 c1.53,0.612,3.06-1.224,1.836-2.448c-5.508-5.814-13.158-9.18-20.502-12.546c-1.224-0.612-2.142,0.306-2.754,1.224 c-1.836-1.836-3.978-3.672-6.12-5.508c0.918-0.306,2.142-0.612,3.06-0.918c3.06,2.142,6.12,3.978,9.486,5.202 c0.918,0.306,1.53,0,1.836-0.612c5.202,2.754,10.404,5.814,15.912,7.956c-0.918,0.612-1.224,1.836-0.306,2.754 c6.426,5.202,13.464,10.71,20.808,14.688c1.224,0.612,3.366-0.612,2.754-2.142c-0.306-0.612-0.612-1.224-0.612-2.142 c-0.306-0.918-1.53-1.224-2.448-0.918c-5.814-4.284-11.934-8.262-17.442-12.546l0,0c0.612-0.918,0.612-1.836-0.306-2.448 c-5.508-3.978-11.628-6.732-17.748-9.792c-0.918-0.612-1.836,0-2.448,0.612c-0.612-0.612-1.53-1.224-2.142-1.836 c7.956,0,15.912,2.754,23.256,7.65c0,0.612,0.306,1.224,0.918,1.836c3.06,1.53,5.814,3.672,8.568,5.508 c8.874,7.956,16.524,18.36,22.032,28.458c-3.978-2.754-7.956-5.814-11.934-8.874c-1.836-1.53-3.978,0.918-2.448,2.448 c4.896,5.202,10.71,10.404,17.136,13.158c1.224,0.612,3.06,0,3.06-1.53c0-0.306,0-0.306,0-0.612 c0.612-0.306,0.918-0.612,1.224-0.918c1.53,0.918,3.366,0.918,4.896,0.306c5.202,3.366,10.404,6.732,15.912,9.486 c1.836,0.918,3.978-1.53,2.448-3.06c7.344,5.202,15.3,9.486,24.174,11.934c1.224,0.306,2.754-1.224,1.836-2.448 c-0.307-0.612-0.918-0.918-1.225-1.53c-0.611-0.612-1.529-0.612-2.142-0.306c-7.65-3.06-14.994-6.732-22.032-11.322 c-1.529-1.224-3.06,0.918-2.142,2.448c-0.306-0.306-0.918-0.918-1.225-1.224c-0.611-0.612-1.224-0.306-1.836,0 c-3.671-2.142-7.343-3.978-11.015-6.12c0.306-0.612,0.612-0.918,0.918-1.53c0.306-1.224,0.918-2.448,1.224-3.672 c4.59,3.06,9.791,5.814,15.3,6.732c1.529,0.306,2.447-1.224,1.836-2.448c7.344,4.896,14.994,9.486,23.256,12.852 c2.142,0.918,3.366-2.448,1.53-3.366c-2.143-1.53-4.591-2.754-6.732-4.284c-0.306-0.306-0.918-0.306-1.224,0 c-6.427-3.366-12.546-6.732-18.666-10.71c-2.143-1.224-3.672,1.836-1.836,3.06c0.611,0.306,1.224,0.918,1.836,1.224 c-4.59-2.448-9.18-4.59-13.464-7.038c0.306-0.918,0.918-1.53,1.224-2.448c2.754,1.836,5.507,3.366,8.261,3.672 c0.918,0,1.836-0.612,2.143-1.53c0-0.306,0-0.306,0-0.612c0.306-0.918-0.307-1.836-0.918-2.142c0,0-0.307,0-0.307-0.306 c-0.611-0.306-1.836-0.306-2.142,0.612c0.611-1.53,1.53,0-0.307-1.836c-0.918-0.918-2.753-1.53-3.977-2.448 c-0.306,0-0.306-0.306-0.612-0.306c0.918-1.53,1.836-2.754,2.447-3.978c3.366,2.142,7.038,3.672,11.016,3.06 c1.225-0.306,2.143-2.142,0.612-2.754c-3.06-1.53-6.12-2.448-9.18-3.978c1.224-1.53,2.448-3.06,3.672-4.284 c0.918,0.306,1.836,0.612,2.754,0.612c1.224,0,2.142-1.836,1.224-2.754c-0.306-0.306-0.611-0.612-0.918-0.918 c0.307-0.306,0.918-0.612,1.225-1.224c1.224,0.612,2.142,1.224,3.365,1.53c1.53,0.612,3.061-1.836,1.837-3.06 c-0.612-0.612-1.225-0.918-1.837-1.224c0.919-0.612,2.143-1.53,3.061-2.142c0,0.306,0.306,0.612,0.612,0.918 c6.426,4.59,12.852,9.18,19.89,12.852c1.53,0.918,3.672-0.612,3.366-2.448c-0.307-1.53-0.612-1.836-2.143-2.754 c-0.611-0.306-0.918-0.306-1.529,0c-5.509-3.366-11.322-6.426-16.83-10.098c1.224-0.612,2.142-0.918,3.366-1.224 c2.754,1.224,5.201,2.754,7.955,3.978c2.755,1.224,5.509,2.754,8.568,2.754c1.836,0,2.448-2.142,1.224-3.366 c-1.836-1.836-4.896-2.448-7.344-3.366c-1.836-0.612-3.366-1.53-5.202-2.142c5.202-1.224,10.71-1.53,15.912-0.612 c0,0.306,0.307,0.918,0.918,1.224c9.181,3.978,17.442,8.874,25.398,14.382c2.448,3.06,4.896,6.426,7.038,10.404 c0.918,2.142,1.836,3.978,2.754,6.12c-2.143-1.53-4.284-2.754-6.426-4.284c-2.143-1.53-5.202,2.142-3.061,3.978 c3.979,3.06,7.956,6.12,12.24,8.874c0.612,2.448,1.53,4.896,1.836,7.344c-6.732-4.896-13.77-9.486-20.502-14.076 c-2.448-1.53-4.59,2.142-2.142,3.978c7.956,5.508,15.605,11.322,23.867,16.524c0.307,1.836,0.612,3.672,0.612,5.508 c-2.754-2.142-5.813-3.978-8.568-5.814c-4.283-3.06-8.567-6.426-12.852-9.486c-1.224-0.918-3.06,1.224-1.836,2.142 c4.284,3.672,8.568,7.344,12.852,10.71c3.366,2.448,6.427,5.508,10.404,7.344c0,1.836,0.306,3.366,0.306,5.202l-4.283-3.978 c-0.612-0.612-1.53-0.306-1.836,0.306c-6.12-3.978-12.24-7.65-18.36-11.322C346.955,238.879,345.119,241.939,346.955,243.163z"/> <path d="M342.977,256.015c-6.732-5.508-14.382-10.404-22.032-14.688c-2.448-1.224-4.59,2.448-2.142,3.672 c7.649,4.284,14.688,8.874,22.032,13.464C342.671,259.381,344.507,257.239,342.977,256.015z"/> <path d="M345.425,247.753c-3.061-2.754-7.038-4.59-10.71-6.426c-3.979-2.142-8.263-4.284-12.24-6.732 c-1.53-0.918-3.061,1.53-1.53,2.448c3.979,2.142,7.956,4.59,12.24,6.732c3.672,2.142,7.038,4.59,11.016,5.508 C345.425,249.895,346.343,248.671,345.425,247.753z"/> <path d="M353.993,213.787c-7.649-3.978-14.994-7.65-20.808-14.382c-1.836-1.836-4.59,0.918-2.754,2.754 c5.813,6.732,13.464,12.546,22.338,14.382C354.299,216.847,355.523,214.399,353.993,213.787z"/> <path d="M354.299,203.689c-0.307,0-0.307-0.306-0.612-0.306c-0.306-0.306-0.918,0-1.224,0c-1.53-0.918-3.061-2.448-4.284-3.366 c-1.836-1.224-3.672-2.448-5.508-3.672c-3.979-2.448-7.65-5.202-11.628-7.65c-2.448-1.53-4.896,2.448-2.448,3.978 c4.896,3.366,9.792,6.732,14.688,10.098c2.754,1.836,6.427,5.508,10.099,4.896c0.611,0,1.224-0.918,1.529-1.53 c0-0.306,0-0.612,0-0.612C355.217,205.219,355.217,204.301,354.299,203.689z"/> <path d="M234.348,65.377c-7.038-3.672-14.076-5.814-20.808-10.404c-1.53-0.918-2.754,1.224-1.224,2.142 c6.12,4.284,13.464,9.18,21.114,10.098C234.653,67.519,235.571,65.989,234.348,65.377z"/> <path d="M290.651,60.175c-0.612-0.918-1.53-0.306-2.142,0.306c-5.202-3.366-10.71-6.12-15.912-9.18 c-2.142-1.224-3.672,1.836-1.836,3.06c6.12,3.672,12.24,7.65,18.359,10.71c1.53,0.612,2.755-0.612,2.448-1.836 C291.569,61.399,291.569,61.399,290.651,60.175z"/> <path d="M305.033,81.901c-8.262-5.202-17.747-8.568-26.927-11.628c-1.53-0.612-2.142,1.836-0.612,2.142 c9.18,3.366,17.441,7.65,26.315,11.628C305.339,84.655,306.257,82.819,305.033,81.901z"/> <path d="M313.295,77.005c-7.345-3.978-15.301-7.038-23.257-10.098c-0.918-0.306-1.529,1.224-0.611,1.53 c7.344,3.672,14.994,7.956,22.95,10.71C313.601,79.759,314.213,77.617,313.295,77.005z"/> <path d="M327.677,67.825c-2.448-2.142-5.508-3.366-8.263-4.896c-3.672-2.142-6.731-4.59-10.098-7.038 c-1.53-1.224-3.366,0.918-2.142,2.142c5.202,4.59,12.239,10.71,19.584,11.934C327.677,69.661,328.595,68.437,327.677,67.825z"/> <path d="M331.961,61.705c0,0-7.345-4.59-7.956-4.896c-2.755-1.53-5.202-3.366-7.956-5.202c-1.836-1.224-3.672,1.836-1.836,3.06 c3.672,2.754,7.344,5.202,11.321,7.65c2.143,1.224,4.591,3.366,7.345,2.754c0.611,0,0.918-0.612,1.224-1.224 c0-0.306,0-0.306,0-0.612C334.715,61.705,333.185,60.787,331.961,61.705z"/> <path d="M350.627,87.409c-7.65-3.366-15.301-7.344-22.339-11.628c-0.918-0.612-1.836,0.612-1.529,1.53 c0.611,0.918,0.611,0.918,1.529,1.53c0.307,0.306,0.612,0,0.918,0c6.427,4.284,13.465,7.956,20.809,10.404 C350.933,89.551,351.851,88.021,350.627,87.409z"/> <path d="M359.195,82.819c-8.567-4.284-17.441-7.65-26.01-12.24c-1.224-0.612-2.142,1.224-0.918,1.836 c8.262,4.896,16.83,9.792,26.315,12.546C359.5,84.961,360.113,83.125,359.195,82.819z"/> <path d="M365.927,72.415c-2.448,0.918-9.181-3.672-11.322-5.202c-4.284-2.448-8.262-5.202-11.934-8.262 c-1.836-1.53-4.284,0.918-2.448,2.448c5.202,4.59,10.71,8.568,16.83,11.628c3.06,1.53,8.262,5.508,10.71,1.836 C368.681,73.639,367.151,72.109,365.927,72.415z"/> <path d="M373.271,68.437c-3.366-2.448-7.344-3.978-11.016-6.12c-3.979-2.142-7.956-4.896-11.628-7.344 c-1.53-1.224-3.061,1.53-1.53,2.754c6.426,4.896,14.688,11.628,22.95,13.464C372.965,71.191,374.495,69.355,373.271,68.437z"/> <path d="M383.063,63.847c-9.486-5.202-19.278-9.792-28.458-15.3c-1.53-0.918-2.754,1.224-1.224,2.448 c9.18,6.12,18.359,11.934,28.764,15.912C383.675,67.213,384.593,64.765,383.063,63.847z"/> <path d="M394.385,57.115c-9.181-4.896-18.36-8.568-26.622-14.994c-1.836-1.53-4.284,1.836-2.448,3.06 c8.262,6.426,17.748,12.546,28.152,14.688C394.997,60.481,396.221,58.033,394.385,57.115z"/> <path d="M404.483,41.815c-0.306-0.306-0.918-0.306-1.224,0c-7.038-4.59-15.912-7.956-23.562-11.628 c-2.142-0.918-3.978,2.142-1.836,3.366c8.262,4.59,17.136,10.404,26.316,13.464c1.224,0.306,2.448-0.918,2.142-2.142 C406.013,43.039,405.707,42.733,404.483,41.815z"/> <path d="M414.887,35.695c-7.956-5.508-18.054-8.874-27.234-12.24c-2.142-0.918-3.672,3.06-1.53,3.978 c8.874,3.978,18.055,8.874,27.234,11.628C415.499,39.367,416.417,36.613,414.887,35.695z"/> <path d="M398.363,93.529c0,0,0-0.306-0.306-0.306c-0.612-1.224-2.448-0.612-2.448,0.612c0-1.836-11.628-4.896-13.464-5.508 c-5.202-2.142-10.098-4.59-14.994-7.038c-1.53-0.918-3.06,1.53-1.53,2.448c6.12,3.672,12.853,6.732,19.278,9.486 c3.366,1.224,9.792,5.202,12.852,2.448C398.669,94.753,398.669,94.141,398.363,93.529z"/> <path d="M406.625,90.775c-0.919-2.142-2.143-3.672-4.284-5.202c-0.918-0.612-1.836,0.612-1.225,1.53 c0.307,0.306,0.307,0.306,0.307,0.612c-8.568-4.896-17.137-9.486-26.011-14.076c-1.224-0.612-2.447,1.224-1.224,2.142 c9.792,5.814,19.584,12.24,29.988,17.442C406.013,93.835,407.237,92.305,406.625,90.775z"/> <path d="M413.969,80.983c0-1.224-1.53-1.836-2.448-0.918s-12.546-5.202-13.771-5.814c-4.283-1.836-8.567-3.672-12.852-5.508 c-1.53-0.612-2.754,1.53-1.224,2.142c6.426,3.366,12.546,6.426,18.972,9.792c3.06,1.53,7.038,4.896,10.404,2.754 c0.611-0.306,0.918-0.918,0.918-1.53C413.969,81.595,413.969,81.289,413.969,80.983z"/> <path d="M473.333,394.938c-2.142-97.308-6.119-194.31-8.567-291.618c-0.612-23.868,9.485-76.194-9.486-95.472 c-14.688-14.994-44.37-4.284-61.506-2.142c-92.412,11.934-189.72,18.666-279.377,45.288c-1.836-0.306-3.366-0.306-5.202-0.612 c0,0,0,0-0.306,0c-1.53-1.224-4.284-0.918-4.59,1.224c-9.792,68.238-3.366,140.76-3.06,209.61 c0.306,37.944,0.306,75.888,0.612,113.832c0.306,34.578-8.262,84.762,0.918,117.504c9.486,33.966,66.402,34.884,96.084,41.616 c66.096,15.3,132.803,26.316,200.124,34.578c2.448,6.426,14.382,7.344,15.605-0.918c2.143-12.853,3.979-25.704,5.509-38.862 c0.306,0,0.611,0.306,0.918,0.306C488.939,529.579,474.25,439.003,473.333,394.938z M454.667,312.931 c-0.611-1.529-3.06-0.918-2.754,0.918c-4.283-7.038-8.874-13.77-13.157-20.808c-0.918-1.53-3.366-0.306-2.448,1.53 c6.12,10.098,11.934,20.502,18.054,30.6c0.306,0.612,0.918,0.918,1.224,0.918c0.307,5.202,0.612,10.404,1.225,16.218 c-2.448-3.06-5.202-6.12-8.262-8.567c-0.918-0.918-2.448,0.306-1.836,1.529c1.836,3.366,3.06,7.345,4.59,10.71 c0.611,1.225,1.836,3.673,2.447,5.814c-4.283-5.814-8.874-11.322-12.852-17.442c-1.224-1.836-3.979-0.306-3.06,1.836 c4.896,7.65,10.098,15.912,16.829,22.339c0.918,0.918,2.448,0.611,2.755-0.612c0.918-3.061-0.919-5.508-2.143-8.262 c-1.224-2.755-2.448-5.509-3.672-8.263c2.142,2.754,3.978,5.508,5.814,8.263c0.306,7.037,0.918,14.382,0.918,21.726 c-1.53-1.836-3.061-3.366-4.284-4.896c-1.225-1.224-3.979,0.612-2.754,2.143c2.447,3.06,4.59,6.426,6.731,9.792 c0.307,0.306,0.612,0.918,0.612,1.53c0,2.447,0.306,4.896,0.306,7.344c-3.672-7.344-7.649-14.688-12.852-20.196 c-0.306-0.306-0.612-0.306-1.224-0.306c0.306-0.307,0.306-0.918,0-1.225c-4.284-7.038-8.874-14.075-13.158-21.113 c0-2.448,0.306-4.896,0.306-7.345c2.754,4.896,5.814,9.486,8.568,14.383c2.754,4.283,5.202,8.874,8.567,12.546 c1.225,1.224,3.366,0,2.754-1.53c-3.672-9.792-11.321-18.972-17.136-27.54c-0.918-1.224-2.448-0.918-3.06,0 c0.306-5.508,0.306-10.71,0.611-16.218c1.836,3.06,3.672,5.813,5.509,8.874c1.529,2.448,4.283,7.344,7.956,4.59 c1.529-1.224,0.611-3.366-1.225-3.061c-1.53,0.307-6.731-8.874-7.649-10.098c-1.53-2.142-2.754-4.284-4.284-6.426 c0-3.979,0.306-7.65,0.306-11.628c2.143,3.978,4.284,7.649,6.732,11.628c2.754,4.896,5.813,10.098,10.403,13.77 c1.225,0.918,3.061-0.306,2.448-1.836c-2.754-5.202-6.731-9.792-9.792-14.994c-3.06-4.896-5.813-10.098-9.18-14.993l0,0 c0.306-5.202,0.306-10.404,0.612-15.913c0.918,1.836,2.142,3.672,3.06,5.508c1.836,3.365,3.672,8.568,7.956,9.18 c-0.306,0.612-0.612,1.225-0.306,1.836c2.754,4.896,6.119,9.486,9.18,14.382c0.306,0.612,0.612,1.225,1.224,2.143 C454.361,311.401,454.361,312.319,454.667,312.931z M171.312,53.749c5.508,3.06,11.322,5.814,17.136,8.262 c-3.978-0.612-7.956-1.53-11.934-2.142c-4.59-1.53-9.18-3.366-13.464-5.202C165.498,54.361,168.251,54.055,171.312,53.749z M398.975,554.977c-63.342-7.649-126.072-18.054-188.189-32.13c-26.01-5.813-61.2-8.262-82.314-25.397 c-17.748-14.382-13.158-24.786-13.464-46.513c0-15.911,0-31.518-0.306-47.43c-0.306-59.976-0.612-120.258-0.918-180.54 c-0.306-54.162,3.366-110.16-3.672-164.016c57.222,18.054,116.892,28.458,175.644,40.392c26.01,5.202,56.304,7.038,80.783,16.524 c47.431,18.054,41.616,57.222,43.452,98.532C416.111,329.455,407.543,441.145,398.975,554.977z M419.477,122.293 c-7.65-14.382-21.727-21.114-38.25-24.786c0-0.612-0.306-0.918-0.918-1.224c-6.732-1.53-12.853-3.978-18.666-7.65 c-1.53-1.224-3.061,1.53-1.53,2.754c1.836,1.224,3.979,2.448,5.814,3.366c-8.263-1.224-16.524-2.142-24.786-3.06 c0,0,0-0.306-0.306-0.306c-8.874-3.366-17.442-7.344-25.398-12.24c-1.224-0.612-2.142,1.224-0.918,1.836 c5.508,3.672,11.322,6.732,17.136,9.18c-1.529-0.306-3.06-0.612-4.59-0.918c-33.966-6.732-67.932-14.076-101.897-20.808 c-7.038-3.978-14.382-7.344-21.726-10.404c-1.224-0.612-2.142,1.836-0.918,2.142c4.59,2.142,9.18,4.284,13.464,6.426 c-7.956-1.53-16.218-3.06-24.174-4.59c0.306-0.612,0.306-1.224-0.306-1.53c-5.202-2.754-10.404-5.202-15.606-7.65 c2.754-0.306,5.202-0.612,7.956-0.918c1.224,0.612,2.448,1.53,3.672,2.142c3.978,2.142,7.956,4.284,12.24,6.12 c1.224,0.612,1.836-1.53,0.918-2.142c-4.284-2.448-8.874-4.59-13.158-6.732c2.754-0.306,5.508-0.612,8.262-0.918 c4.59,2.448,8.874,4.896,13.464,7.038c1.53,0.918,3.672-1.224,2.142-2.754c-0.612-0.612-1.53-1.224-2.448-2.142 c-0.612-0.306-1.224-0.306-1.836,0c-2.142-0.918-3.978-1.836-6.12-3.06c2.142-0.306,4.284-0.612,6.426-0.918 c1.836,0.918,3.366,2.142,5.202,3.06c2.142,1.224,4.59,3.06,6.732,1.224c7.956,4.59,15.912,9.792,24.174,12.852 c0.612,0.306,1.224,0,1.53-0.612c5.814,2.754,11.628,5.814,17.442,8.874c1.224,0.612,2.142-1.224,0.918-1.836 c-5.814-3.672-12.24-6.426-18.666-8.874v-0.306c-7.344-5.508-16.83-9.486-25.092-13.77c-1.224-0.612-2.142,0.306-2.142,1.224 c-1.53,0-3.672-1.224-5.508-2.448c2.142-0.306,4.59-0.612,6.732-0.918c1.836,0.918,3.978,1.53,6.12,2.142 c1.224,0.306,2.448-0.612,2.142-2.142c-0.306-0.306-0.306-0.612-0.612-1.224c0.918,0,1.836-0.306,2.754-0.306 c0.612,0.306,0.918,0.612,1.53,0.918c-0.918,0.612-1.224,1.836-0.306,2.754c5.814,4.284,11.934,7.956,18.36,11.322 c0.918,0.306,1.53,0,2.142-0.306c0,0.306,0.306,0.612,0.612,0.918c6.732,4.896,14.994,10.098,23.562,11.322 c1.224,0.306,2.448-1.836,0.918-2.448c-7.956-3.672-15.912-6.426-23.256-11.322c-0.612-0.306-0.918-0.306-1.53,0.306 c0-0.306,0-0.612-0.306-0.918c-1.53-1.836-3.06-3.672-4.59-5.508c-0.918-1.224-2.754,0.306-1.836,1.53 c0,0.306,0.306,0.306,0.306,0.612c-3.672-2.142-7.344-4.284-10.71-6.426c1.224-0.306,2.142-2.142,0.918-3.06l0,0 c0.918,0,2.142-0.306,3.06-0.306c-0.306,0.612-0.306,1.53,0.612,2.142c6.12,3.672,13.77,9.18,20.808,9.792 c0.918,0,1.53-0.918,1.53-1.53c6.426,4.896,13.464,9.792,20.808,12.852c1.836,0.918,3.366-1.224,2.142-2.754 c-1.224-1.224-2.142-2.754-3.06-3.978c-0.612-0.918-2.142,0-1.836,0.918l0,0c-6.12-3.672-12.546-7.038-18.36-11.628 c-1.53-1.224-3.06,0.918-1.836,2.448c-2.448-1.53-5.202-2.754-7.65-3.978c-3.672-0.612-7.038-2.448-10.098-4.284 c1.836-0.306,3.978-0.612,5.814-0.918c6.12,3.06,12.546,6.12,18.972,6.732c1.836,0.306,1.836-2.142,0.918-3.06 c-1.224-0.918-2.142-1.836-3.06-3.06c-0.612-0.612-1.836,0.306-1.224,0.918l0,0c-2.448-0.918-4.896-1.836-7.344-2.754 c2.448-0.306,5.202-0.612,7.65-0.918c3.672,1.53,7.65,3.366,11.322,4.59h0.306c0,0,0,0.306,0.306,0.306 c7.344,4.896,14.688,11.322,23.255,14.382l0,0c6.732,5.202,14.076,10.71,22.032,14.076c1.53,0.612,2.142-1.53,0.918-2.142 c-7.038-4.59-14.382-8.568-21.114-13.464c0-0.612-0.306-1.224-0.306-1.836c-0.306-1.224-1.53-0.918-2.142-0.306 c-6.427-4.896-14.076-8.874-20.808-13.158h-0.306c0-1.224-0.306-2.448-0.918-3.672c1.224-0.306,2.448-0.306,3.672-0.612 c0.918,0.306,1.836,0.612,2.754,0.918c-0.306,0.612-0.306,1.224,0.612,1.836c6.731,4.59,13.769,8.874,21.113,12.24 c1.225,0.612,2.448,0,2.448-1.53c0-1.224,0-1.53-0.918-2.754c-0.611-0.918-1.836-0.612-2.448,0 c-5.508-2.754-10.71-5.814-15.911-8.874c0.612-0.612,0.918-1.836,0-2.754c-0.306-0.306-0.612-0.306-0.918-0.612 c1.836-0.306,3.365-0.612,5.201-0.612c6.12,3.672,12.24,7.65,18.666,10.71c1.225,0.612,2.754-0.306,2.448-1.836 c0-0.612-0.306-1.224-0.306-1.836c-0.307-1.224-1.836-1.224-2.448-0.306c-3.978-2.754-8.568-5.202-12.852-7.344 c1.224-0.306,2.754-0.306,3.978-0.612c3.672,1.836,7.344,3.978,11.016,5.814c2.755,1.224,5.509,3.366,8.568,3.366 c0,0,0,0.306,0.306,0.306c3.979,3.366,8.568,6.732,13.465,8.874c2.754,1.224,6.731,3.979,9.18,1.53 c0.306-0.306,0.612-0.918,0.306-1.53c0,0,0-0.306-0.306-0.306c-0.612-1.224-2.448-1.53-2.754,0 c0.306-1.836-7.038-3.978-8.262-4.896c-3.366-1.836-6.427-3.978-9.181-6.426c-0.612-0.306-0.918-0.612-1.53-0.306 c-5.201-2.142-10.71-4.59-15.911-7.038c3.365-0.612,7.038-0.918,10.403-1.53c2.754,1.53,5.508,3.06,8.263,4.284 c0,0.612,0,1.224,0.611,1.53c7.345,4.896,15.3,9.792,23.562,12.852c1.224,0.612,2.754-0.918,2.142-2.142 c-0.612-2.448-1.836-3.978-3.978-5.508c-1.225-0.918-2.448,0.918-1.53,1.836c-4.59-2.448-9.486-4.896-14.076-7.65 c0.918-0.306,1.53-0.918,1.836-2.142c0-0.612,0-1.224-0.612-1.53c8.874,3.06,17.137,7.344,25.704,10.404 c1.225,0.306,2.143-0.918,1.53-2.142c-1.224-1.836-2.754-3.366-4.896-4.59c-0.612-0.306-1.225,0.306-1.225,0.612 c-6.731-3.672-14.076-6.12-21.114-8.262c-2.142-0.612-2.754,2.448-0.918,3.06c-0.306,0-0.611,0-0.918,0.306 c-2.142,0.918-5.508-0.612-7.956-2.142c6.12-0.918,12.547-2.142,18.973-3.366c7.956,3.978,15.912,7.956,24.174,11.016 c1.53,0.612,2.142-1.53,0.918-2.448c-6.426-3.672-13.464-6.732-20.196-9.486c2.448-0.612,4.896-0.918,7.345-1.53 c7.037,3.06,13.77,6.12,20.502,9.18c-1.836-0.612-3.061,2.448-1.225,3.366c5.202,2.448,10.404,4.896,15.606,7.038 c4.284,1.836,8.262,4.284,12.852,4.59c1.225,0,1.836-1.53,0.918-2.448c-3.978-3.366-9.18-4.896-13.77-6.732 c-3.979-1.53-7.65-3.06-11.628-4.896c2.142,0.306,3.672-2.448,1.529-3.672c-5.508-3.06-11.321-5.814-17.136-8.262 c3.979-0.612,7.956-1.53,11.628-2.142c2.754,1.836,5.814,3.366,8.568,4.284c1.53,0.612,2.448-1.836,1.224-2.448 c-1.224-0.918-2.754-1.836-3.978-2.754c3.672-0.612,7.344-0.918,11.016-1.224c9.792,3.06,19.584,7.038,29.682,8.874 c1.53,0.306,2.448-1.836,1.225-2.448c-5.508-3.06-11.935-5.202-18.054-7.038c0.918,0,1.529,0,2.447,0 c7.956,3.06,16.219,5.813,24.175,7.65c2.142,0.612,3.06-2.448,0.918-3.366l0,0c11.628-0.306,17.441,3.672,17.748,12.24 c-4.591-3.366-9.793-6.12-14.383-8.568c-2.754-1.53-5.508,2.754-2.447,4.284c5.508,3.366,10.71,7.038,16.523,10.098 c0,0.306,0,0.612-0.306,1.224c-3.061-2.142-6.12-3.978-6.732-4.284c-4.284-2.448-8.262-4.284-13.158-5.202 c-1.836-0.306-2.754,1.836-1.224,3.06c4.284,2.754,8.262,5.814,12.24,9.18c1.53,1.224,3.06,2.754,4.284,4.284 c1.224,1.224,5.508,4.284,2.754,5.508c-1.53,0.612-9.181-5.202-10.71-6.12c-4.896-3.06-9.181-6.12-13.771-9.792 c-2.142-1.836-5.202,1.224-3.06,3.06c6.426,5.508,13.158,10.404,20.502,14.688c2.448,1.224,7.038,4.284,10.098,2.754 c0.307,4.284,0,8.568,0,12.852c-1.53-0.918-3.06-2.142-4.59-3.06c-1.836-1.224-3.366,1.836-1.836,3.06 c2.142,1.53,4.284,3.366,6.12,4.896c0,0.612,0,1.224,0,1.836c-2.754-2.142-5.814-3.978-8.263-5.202 c-1.529-0.918-3.365,1.224-1.836,2.448c3.061,2.448,6.12,4.896,8.874,7.344c0.307,0.306,0.918,0.612,1.225,0.918 c0,1.53,0,2.754,0,4.284c-2.143-1.836-5.509-3.672-6.12-4.284c-3.672-2.754-7.344-5.814-11.017-8.568 c-1.529-1.224-3.365,0.918-2.142,2.142c3.06,2.754,6.12,5.508,9.486,8.262c3.06,2.448,6.12,5.813,9.792,7.956c0,0,0,0,0.306,0 c0,1.224,0,2.448,0,3.366c-7.038-6.426-14.382-12.546-21.726-18.666c-0.307-0.306-0.307,0-0.612-0.306 c1.53,0,2.142-1.836,0.918-2.754c-5.202-3.672-11.322-5.814-16.83-8.568s-11.016-5.814-16.83-8.568 c-1.836-0.918-3.366,1.53-1.53,2.754c5.509,3.672,11.629,6.732,17.442,9.792c5.202,2.754,10.404,5.508,15.912,7.038 c-1.224,0.306-2.142,1.53-0.918,2.754c7.956,7.344,15.912,14.994,24.174,21.726c0.306,5.814,0.306,11.322,0.612,17.136 c-1.836-1.836-3.366-3.366-4.896-5.202c-1.224-1.224-2.754,0.612-1.836,1.836c2.142,2.754,4.59,6.12,6.732,9.18 c0,1.53,0,3.06,0,4.59c-4.284-4.896-8.568-10.098-12.546-15.3c-0.918-1.53-3.366,0-2.448,1.53 c4.896,6.732,9.792,13.464,15.3,19.89c0,0.918,0,1.836,0,2.448c-0.306-0.612-0.612-1.224-1.53-1.836 c-0.611-0.612-1.224-0.306-1.529-0.306c-6.12-7.65-13.158-14.688-20.196-21.42c-1.53-1.53-3.672,0.612-2.143,2.142 c7.956,8.262,15.301,17.136,22.95,26.01c0.612,0.612,1.836,0.612,2.448,0c0,2.754,0,5.202,0.306,7.956 c-1.836-2.448-3.672-4.59-5.202-7.038c-0.306-0.306-0.611-0.612-0.918-0.612v-0.306c-0.918-2.754-2.142-4.896-3.978-7.038 c-0.612-0.918-1.836-0.306-1.836,0.612c-5.202-5.814-10.404-11.628-15.3-17.748C421.007,120.457,419.783,121.375,419.477,122.293z M439.979,147.385c0.306,0.306,0.612,0.306,0.918,0.306c0,0.306,0,0.306,0,0.612c2.754,3.978,5.508,8.874,8.568,13.158 c0,3.672,0.306,7.344,0.306,11.016c-2.754-5.202-5.813-10.098-8.568-15.3c-0.918-1.53-3.06-0.306-2.447,1.53 c3.365,7.65,7.344,14.994,11.321,22.338c0,3.672,0.307,7.344,0.307,11.016c-1.53-1.53-4.59,0.918-3.366,2.754 c1.224,1.53,2.142,2.754,3.366,4.284c0,0.306,0,0.612,0,0.918c-0.307-0.918-0.612-1.53-1.225-2.448 c-0.611-1.224-2.754-0.306-2.142,0.918c0.306,0.612,0.306,0.918,0.612,1.53c-3.061-3.672-6.427-7.344-9.792-11.016 c-1.225-1.224-3.061,0.612-1.836,1.836c5.201,6.12,9.792,12.24,14.688,18.36c0.306,6.12,0.306,12.24,0.612,18.36 c-0.918-1.224-3.366,0-2.143,1.53c0.918,1.224,1.53,2.448,2.448,3.672c0,0.918,0,1.836,0,2.754c0,0.306-0.306,0.306-0.306,0.612 c-3.672-5.202-7.344-10.098-11.322-15.3c-0.918-1.224-3.06,0-2.142,1.224c4.59,6.732,9.18,13.77,14.075,20.502 c0.307,6.426,0.307,13.158,0.612,19.584c-1.224-1.224-2.448-2.754-3.672-3.978c-0.918-0.918-2.142,0.306-1.224,1.224 c1.836,2.142,3.672,4.59,5.202,7.038c0,2.448,0,4.896,0.306,7.344c-4.59-6.12-8.874-12.24-13.464-18.666 c-0.918-1.224-2.754,0-2.143,1.224c5.202,7.65,10.404,15.606,15.606,23.256c0,1.836,0,3.672,0,5.814 c0,3.978,0.612,9.792,0.918,16.83c0,0,0-0.306-0.306-0.306c-2.143-3.061-4.591-6.426-7.038-9.486 c-0.307-0.306-0.612-0.306-0.612-0.306c0.612-0.612,0.612-1.224,0-1.836c-3.366-3.366-5.508-8.262-8.262-12.24 c-1.225-2.142-2.754-4.59-4.284-6.732c0-2.754,0-5.202,0-7.956c4.284,8.568,9.486,17.442,15.605,24.48 c1.225,1.53,3.366-0.306,2.448-2.142c-5.508-9.486-12.239-18.666-18.054-28.152l0,0c0-5.508,0.306-11.322,0-16.83 c0.612,0.918,1.53,1.836,2.142,2.448c3.061,3.978,6.12,7.65,9.792,11.322c1.53,1.53,3.366-0.612,2.143-2.142 c-2.754-3.366-5.814-7.038-8.568-10.71c-1.53-2.142-3.672-4.284-5.508-6.732c0-3.366,0-6.732-0.306-10.098 c2.142,4.284,4.59,8.568,7.344,12.546c2.448,3.672,4.59,7.956,7.956,11.016c1.224,1.224,2.754-0.306,2.142-1.53 c-2.142-4.284-5.508-7.956-7.956-11.628c-2.754-3.978-5.202-7.956-7.649-11.934c-0.612-0.612-1.225-0.612-1.836,0 c0-3.366,0-6.426,0-9.792c2.754,3.978,6.119,7.65,9.792,10.098c0.918,0.612,2.447-0.306,2.447-1.224c0-0.612,0-1.53,0-2.142 c0-1.224-1.529-1.53-2.447-0.918c-2.143-2.142-4.284-4.284-6.427-6.426c-1.224-1.53-2.447-3.06-3.672-4.896 c-0.306-3.672-0.306-7.038-0.612-10.71c2.143,3.06,4.284,6.12,6.12,8.874c2.448,3.366,4.591,7.344,7.65,10.098 c1.224,0.918,2.754-0.306,2.142-1.53c-1.836-3.672-4.896-7.038-7.649-10.404c-2.754-3.672-5.814-7.344-8.874-11.016 c0-1.224,0-2.754-0.307-3.978l0.307,0.306c0.611,0.918,2.448,1.224,3.06,0c0.918-2.142,0.612-3.672-0.918-5.202 c-0.306-0.306-0.918-0.306-1.53,0c-0.611-0.612-0.918-1.53-1.529-2.142c-0.307-2.754-0.612-5.202-0.918-7.956 c0.918,1.836,1.836,3.672,3.06,5.508c1.53,2.754,3.366,8.262,6.732,9.18c0.611,0.306,1.529-0.306,1.836-0.612 c0-0.306,0.306-0.306,0.306-0.612c0.307-0.306,0.307-0.918,0-1.53l-0.306-0.306c-0.307-0.612-0.918-0.612-1.225-0.306 c-0.611-1.224-5.508-9.486-6.119-10.71c-1.837-2.754-3.366-5.814-4.896-8.874c-0.612-4.59-1.224-9.486-2.142-14.076 c2.754,3.672,5.813,7.344,9.792,9.18c1.224,0.612,2.142-0.918,1.529-1.836c-3.672-4.59-8.567-8.262-12.239-13.158 c-0.612-2.754-1.225-5.202-1.53-7.65c3.672,4.59,7.956,9.18,12.852,12.24c0.918,0.612,2.143-0.306,1.836-1.53 c-0.306-0.612-0.306-0.918-0.611-1.53c-0.307-0.612-0.612-0.612-1.225-0.306c-4.896-4.896-9.792-9.18-14.075-14.688 c-0.612-2.754-1.53-5.202-2.448-7.65C426.515,133.309,432.941,140.959,439.979,147.385z M425.903,512.442 c-1.224-1.836-2.448-3.672-3.366-5.508c0.612-4.59,0.918-8.874,1.225-13.464c0.611,1.225,1.529,2.448,2.142,3.672 c-0.306,0.307-0.612,0.612-0.612,1.225c1.225,4.59,1.837,9.18,1.53,13.77C426.821,512.442,426.209,512.442,425.903,512.442z M435.695,505.405c0-0.307-0.306-0.612-0.918-1.225c-0.612-0.918-1.224-1.836-1.836-2.754c-1.224-1.53-2.142-3.366-3.366-5.202 c-1.836-3.06-3.672-6.12-5.508-9.18c0.306-2.142,0.306-4.284,0.612-6.12c0.918,1.53,1.836,3.061,3.06,4.59 c-1.224,0.307-1.836,1.53-0.918,2.754c3.672,5.202,7.344,10.404,11.935,14.994h0.306c-0.612,0.918-1.53,1.53-2.143,2.448 C436.613,505.405,436.307,505.405,435.695,505.405z M442.121,499.591c-4.896-8.568-10.71-16.83-16.523-25.092 c0.306-2.448,0.306-4.896,0.612-7.344c5.813,8.874,11.934,18.359,19.584,25.703C444.569,495.307,443.345,497.449,442.121,499.591z M456.809,445.735c-0.918,0.918-1.53,2.142-0.918,3.672c0,0.306,0.306,0.306,0.306,0.611c-0.306,1.53-0.306,3.366-0.611,4.896 c-3.061-3.979-6.12-8.262-8.874-12.24c-0.612-0.918-2.448,0-1.836,0.918c3.365,5.508,6.426,11.016,9.791,16.524 c-0.918,6.12-2.142,11.934-3.672,17.441c-2.754-3.672-5.201-7.344-7.956-11.016c-1.224-1.836-4.59,0-3.06,1.836 c3.06,4.896,6.426,9.486,9.792,14.382c-0.612,2.143-1.53,4.59-2.448,6.732c-5.813-8.568-12.546-16.524-18.666-25.093 c-0.611-0.918-1.529-0.918-2.448-0.611c0.307-2.448,0.307-4.896,0.612-7.344c3.061,5.508,6.12,11.016,9.18,16.523 c1.225,2.142,3.979,0.306,3.061-1.836c-3.061-7.038-7.038-14.076-11.628-20.502c0.306-2.754,0.306-5.202,0.306-7.956 c0.918,1.836,2.143,3.672,3.061,5.508c3.365,5.508,6.731,10.71,10.71,15.912c1.224,1.53,3.672-0.306,3.365-1.836 c-0.918-3.672-2.142-7.038-3.672-10.404c-0.611-1.224-2.754-0.306-2.142,0.918c0.306,0.612,0.306,0.918,0.306,1.53 c-0.918-1.53-2.142-3.06-3.06-4.59c-2.754-3.979-7.344-8.874-7.344-14.076c0-0.612-0.307-0.918-0.612-0.918 c0.306-6.12,0.612-12.24,0.918-18.36c3.06,9.181,7.65,18.36,14.076,25.093c1.224,1.529,3.672-0.307,2.754-2.143 c-5.814-10.098-11.628-19.277-16.218-30.294c0-0.306-0.307-0.306-0.307-0.306c0.307-6.12,0.612-12.24,0.612-18.36 c3.06,5.508,6.12,11.017,9.18,16.218c0.612,1.225,2.448,1.225,3.366,0.307c5.508,8.874,10.404,18.359,14.382,28.151 c0.307,0.612,0.612,0.918,0.918,1.225C457.421,439.309,457.115,442.369,456.809,445.735z M458.645,400.753 c0,0,0-0.306-0.306-0.306c-0.918-1.53-3.061,0-2.143,1.224c0.918,1.53,1.53,3.06,2.448,4.59c0,0.918,0,1.53,0,2.448 c-2.142-3.061-4.284-5.814-6.426-8.874c-1.225-1.53-3.672,0.306-2.448,1.836c3.366,4.896,6.12,10.098,8.874,14.994 c0,1.53,0,3.366,0,5.202c-0.306-1.836-2.754-1.53-3.366,0c-3.366-6.427-7.038-12.853-11.628-18.666 c0-1.225-0.306-2.448-0.918-3.979c-0.612-1.224-2.448-0.918-3.06,0c-3.061-5.202-6.12-10.098-9.486-14.994 c0-3.06,0.306-6.12,0.306-8.874c4.284,7.956,8.568,15.606,14.076,22.338c1.53,1.837,4.59,0,3.672-2.142 c-0.918-2.448-1.529-5.202-2.448-7.956c-0.306-1.224-2.142-1.224-2.754-0.612c-4.283-6.731-8.567-13.464-12.546-20.195 c0-2.448,0.307-4.896,0.307-7.65c0-2.448,0-5.202,0.306-7.956c3.366,5.508,6.732,10.71,10.71,15.3 c0.306,0.307,0.612,0.307,0.918,0.612c-0.306,0.306-0.306,0.918,0.306,1.225c6.732,8.873,11.017,19.584,15.912,29.375 C458.951,398.611,458.645,399.529,458.645,400.753z"/> <path d="M431.717,71.191L431.717,71.191c-0.612-0.612-1.225-0.612-1.836-0.612c-0.918,0-5.202-3.06-6.12-3.366 c-2.143-1.224-4.284-2.448-6.732-3.672c-4.284-2.448-8.567-5.508-12.852-8.262c-1.53-0.918-3.366,1.53-2.143,2.754 c5.509,4.59,11.322,8.568,17.442,11.934c2.448,1.53,8.874,6.732,11.934,3.672C432.635,73.027,432.635,71.803,431.717,71.191z"/> <path d="M443.957,66.295l-0.611-2.448c-0.307-1.53-3.061-1.53-3.366,0c0,0,0,0,0,0.306c-5.202-0.918-11.322-5.508-15.606-7.956 c-5.508-3.06-11.321-6.12-16.829-9.18c-2.448-1.53-4.896,2.448-2.448,3.978c6.731,3.978,13.464,7.65,20.195,11.322 c4.591,2.448,10.404,7.344,16.219,6.732C443.345,69.049,444.569,67.825,443.957,66.295z"/> <path d="M423.149,114.643c-7.038-5.814-14.382-11.016-21.726-15.912c-0.918-0.612-1.836,0.918-1.225,1.53 c7.038,5.814,14.076,11.322,21.42,16.524C422.843,117.397,424.067,115.561,423.149,114.643z"/> <path d="M432.941,115.561c-5.508-4.896-11.322-9.18-17.442-13.464c-1.836-1.224-7.344-7.344-9.792-5.202 c-0.306,0.306-0.306,1.224,0.307,1.53l0,0c0.306,0,0.612,0,0.918,0s11.322,9.486,12.24,10.404c3.978,3.06,7.956,6.12,12.239,8.874 C432.635,118.621,434.165,116.479,432.941,115.561z"/> <path d="M437.225,109.747c-4.284-3.06-8.262-5.814-12.24-9.18c-1.836-1.53-3.978-3.366-5.813-4.896 c-0.918-0.612-1.836-1.53-2.754-2.142s-3.673-1.836-4.284-2.754c0,0,0-0.306-0.307-0.306c-0.611-0.918-1.836,0-1.836,0.918 c0.307,1.836,4.59,4.284,5.814,5.508c2.754,2.448,5.508,5.202,8.262,7.65c2.754,2.754,8.262,8.874,12.853,7.956 C437.837,111.889,437.837,110.359,437.225,109.747z"/> <path d="M446.405,110.053c-0.918-1.53-2.142-3.366-3.06-4.896c-0.612-0.918-1.836-0.918-2.448-0.306 c-7.038-6.426-14.076-12.852-21.114-18.972c-1.224-1.224-3.06,0.612-1.836,1.836c8.568,8.262,16.83,16.524,25.398,24.786 C444.875,114.031,447.629,112.195,446.405,110.053z"/> <path d="M447.017,185.023C447.017,185.023,446.711,185.023,447.017,185.023c-4.59-8.262-9.486-16.524-14.076-24.786 c-0.612-1.224-2.754-0.306-2.448,0.918c3.979,9.486,8.568,19.278,14.382,27.846c0.919,1.224,2.755,0.918,3.061-0.306 c0.306-0.612,0.612-1.53,0.918-2.142C449.771,185.023,447.629,183.799,447.017,185.023z"/> <path d="M451.301,387.595c-0.307-0.612-0.918-0.918-1.225-0.918c-3.978-7.956-8.567-15.605-13.157-22.95 c-0.919-1.836-3.673-0.306-2.755,1.53c5.814,10.404,10.711,21.114,16.219,31.212c0.918,1.836,3.978,0.612,3.366-1.53 C452.831,392.797,452.219,390.043,451.301,387.595z"/> <path d="M449.465,421.867c-0.612-0.918-1.225-0.918-1.836-0.307c-4.284-7.038-9.181-13.77-14.383-20.195 c-0.918-1.225-3.365,0.306-2.447,1.836c6.731,10.098,12.239,20.808,18.972,31.212c1.224,1.836,4.284,0.611,3.672-1.53 C452.525,428.905,451.301,425.232,449.465,421.867z"/> <path d="M452.525,464.095c0,0,0-0.306-0.306-0.306l0,0c-1.836-4.284-3.061-8.568-4.59-12.853 c-0.307-0.918-1.225-0.918-1.836-0.611c-2.755-4.896-5.509-9.792-8.263-14.688c-0.918-1.53-3.366-0.306-2.448,1.53 c4.896,9.486,8.568,19.278,13.771,28.764C450.383,467.461,452.831,465.931,452.525,464.095L452.525,464.095z"/> </g> </g> </g>

</svg>