<!DOCTYPE svg PUBLIC "-//W3C//DTD SVG 1.1//EN" "http://www.w3.org/Graphics/SVG/1.1/DTD/svg11.dtd">

<!-- Uploaded to: SVG Repo, www.svgrepo.com, Transformed by: SVG Repo Mixer Tools -->
<svg fill="#fff" version="1.1" id="Capa_1" xmlns="http://www.w3.org/2000/svg" xmlns:xlink="http://www.w3.org/1999/xlink" width="800px" height="800px" viewBox="0 0 559.848 559.848" xml:space="preserve" stroke="#ff0000">

<g id="SVGRepo_bgCarrier" stroke-width="0"/>

<g id="SVGRepo_tracerCarrier" stroke-linecap="round" stroke-linejoin="round"/>

<g id="SVGRepo_iconCarrier"> <g> <g> <path d="M520.232,74.721L520.232,74.721c2.448-1.836,2.754-5.814-0.918-7.038c-32.437-12.546-68.238-7.956-102.204-7.344 c-35.802,0.918-71.91,0.306-107.406,5.202c-3.06-9.792-12.546-17.442-23.562-15.3c0-3.978,0-7.65,0.612-11.628 c8.873-4.59,15.911-15.912,12.546-26.01c-7.956-23.256-49.572-10.404-56.917,7.038c-0.918,2.142,0,3.979,1.836,4.896 c-1.224,1.53-1.224,3.978,1.224,5.814c2.754,1.836,5.508,3.366,8.568,4.896c2.448,3.978,4.284,8.568,4.896,13.158 c0,0.612,0,0.918,0,1.53c-12.24-0.918-25.092,1.53-26.622,16.83v0.306c-62.73,2.142-124.848,9.18-187.884,8.262 c-1.836,0-3.06,0.612-3.978,1.53c-3.06-1.53-7.65,0-7.956,4.896c-8.874,76.194-2.142,157.284-0.306,234.09 c1.53,77.725-0.306,156.672,7.038,233.784c0.306,3.672,3.06,5.202,5.814,5.202c0,1.836,1.53,3.672,3.978,3.978 c78.336,3.366,156.672-2.447,235.008-3.672c78.03-1.224,156.979,0.307,235.009-4.896c2.754-0.307,4.283-2.448,4.59-4.59 c2.142,3.672,8.262,3.06,8.262-1.837C529.719,387.454,524.517,230.781,520.232,74.721z M298.076,65.235c0.307,0,0.307,0,0.612,0 c0.918,1.224,1.53,2.754,1.836,4.284c-3.672-3.672-8.262-6.732-12.546-9.792c-0.612-0.306-0.918-0.306-1.53-0.306 c0-0.918,0-1.836-0.306-2.754C290.427,59.421,294.099,62.481,298.076,65.235z M300.83,72.885c0,0.918-0.306,1.836-0.611,2.754 c-4.284-2.754-8.568-5.508-12.853-8.262c0-1.53-0.306-3.06-0.306-4.59c4.284,3.366,8.262,7.038,12.852,9.792 C299.912,72.885,300.524,72.885,300.83,72.885z M287.061,69.213c3.978,3.06,7.956,5.814,12.24,8.262 c-0.612,0.918-1.225,2.142-2.448,3.06c0-0.306,0-0.306-0.306-0.612c-4.284-3.06-8.874-5.814-13.465-8.568h0.307 C284.919,71.662,286.448,70.743,287.061,69.213z M289.202,16.582v0.306c-2.447-2.448-5.508-4.284-8.874-5.814 c-0.306,0-0.306,0-0.612,0c-0.612-0.306-1.224-0.918-1.836-1.224C283.082,9.849,288.284,10.767,289.202,16.582z M259.214,15.969 c3.366,2.142,7.038,4.59,10.71,6.732c0.918,0.612,1.836-0.918,0.918-1.53c-3.06-2.142-6.426-3.978-9.486-6.12 c1.224-0.612,2.448-1.224,3.978-1.836c3.366,2.142,6.732,4.284,10.404,5.814c1.53,0.612,2.754-1.224,1.224-2.142 c-2.754-1.53-5.202-3.06-7.956-4.896c0.612-0.306,1.224-0.306,2.142-0.612s2.142-0.306,3.06-0.612 c1.836,1.224,3.978,2.448,6.12,3.366c0.306,0,0.612,0,0.917,0c3.061,1.53,5.509,3.672,8.263,5.814 c-0.307,0.918-0.612,1.836-1.225,2.754c-2.447-2.142-5.508-3.978-8.262-5.814c-2.142-0.918-3.366,1.53-2.142,2.448 c2.754,1.836,5.202,3.978,8.262,5.508c-0.306,0.306-0.612,0.918-1.224,1.224c-3.673-2.754-7.957-4.59-11.935-7.344 c-1.224-0.918-2.448,0.918-1.53,1.836c3.366,2.754,7.038,5.814,11.016,7.038c-0.918,0.612-1.836,1.224-3.06,1.53 c-3.672-2.142-7.344-3.978-11.016-5.508c-0.612-0.306-1.224,0-1.53,0.306l0,0c-3.06-2.754-6.426-4.896-10.098-7.038 C257.685,16.582,258.296,16.275,259.214,15.969z M269.619,51.771L269.619,51.771c0-1.53-0.306-2.754-0.612-3.978 c2.754,1.836,5.202,3.978,7.956,5.508c0,1.224,0,2.754,0,3.978C274.515,55.443,272.066,53.607,269.619,51.771z M277.269,59.728 c0.306,0.918,0.306,1.53,0.306,2.448c-2.754-1.836-5.508-3.366-8.568-4.896c0.306-1.224,0.306-2.142,0.306-3.366 C272.066,55.75,274.515,57.891,277.269,59.728z M269.006,58.503c3.06,1.836,6.12,3.672,9.18,5.814c0,0.306,0,0.306,0.306,0.612 c-0.612,0-1.224,0-1.836,0c-3.06-0.306-5.508-2.142-6.732-4.896c-0.306-0.306-0.612-0.612-0.918-0.612 C269.006,59.115,269.006,58.81,269.006,58.503z M254.625,21.478c-0.306-0.306-0.918-0.612-1.224-0.918 c0.612-0.612,1.224-1.224,2.142-1.836c3.366,2.448,7.038,5.202,10.71,7.344c0.612,0.306,0.918,0,1.224-0.306 c0,0,0,0.306,0.306,0.306c2.754,1.53,5.814,3.06,8.568,4.284c-3.672,0.612-7.65,0-11.628-1.224c0-0.306,0-0.612-0.306-0.918 C261.05,25.761,257.685,23.62,254.625,21.478z M244.526,65.235c3.978,2.754,7.956,5.508,11.934,7.956 c0.612,0.306,1.53-0.612,0.918-1.224c-3.978-3.06-7.956-5.814-12.24-8.262c0.612-0.918,1.224-1.836,2.142-2.448 c3.978,1.836,7.344,4.284,11.322,6.732c0.918,0.612,1.836-0.612,1.224-1.53c-2.754-3.06-6.732-5.202-10.404-6.732 c1.224-0.918,2.754-1.53,4.284-2.142c2.142,1.53,3.978,3.06,6.12,4.59c0,0,0,0,0,0.306c0.306,0.918,1.224,1.836,2.142,2.448 c-0.306,0.612-0.306,0.918,0.306,1.53c4.284,2.448,7.956,5.202,11.934,7.956c0,0.306,0.306,0.612,0.612,0.918 c4.59,3.06,9.18,6.12,13.771,8.568c1.224,0.612,2.142-0.918,0.918-1.836c-3.672-2.754-7.65-5.202-11.935-7.65 c-0.612-0.612-1.224-1.224-1.53-1.53c1.53,0.306,3.366,0.306,4.896,0c4.896,3.06,9.792,6.12,14.688,9.18 c-3.061,2.142-7.345,3.366-11.629,3.672c-2.754-1.224-5.813-2.448-8.567-3.672c-0.612-0.306-1.224,0.918-0.612,1.224 c1.53,0.918,3.366,1.836,4.896,2.754c-4.59,0-9.18-0.306-12.546-0.612c0,0,0,0-0.306,0c0-0.306-0.306-0.306-0.306-0.306 c-3.978-1.836-7.65-3.672-11.322-6.12c-0.612-0.612-1.53,0.612-0.918,1.224c1.836,1.836,3.978,3.366,6.426,4.59 c-7.65-1.53-15.3-4.896-16.524-12.852c2.448,2.448,4.896,4.896,7.956,6.426c1.224,0.612,2.142-0.918,0.918-1.836 c-3.366-2.142-6.12-4.284-8.874-7.038h-0.306c0-0.306,0-0.612,0-0.612C243.915,67.071,244.221,66.153,244.526,65.235z M270.23,96.447c-0.612,4.284-1.224,8.262-2.142,12.24c-0.918-3.978-1.53-8.262-1.836-12.546 C267.782,96.447,269.006,96.447,270.23,96.447z M518.702,540.454c-78.029-2.143-156.978,2.447-235.008,3.978 c-78.03,1.836-156.366-0.918-234.09,5.202c0-0.306,0-0.306,0-0.612c3.366-77.724-1.836-156.365-2.448-233.783 c-0.612-74.97,4.896-153-3.06-227.665c0,0,0,0,0.306,0c62.73,1.224,127.602,1.836,189.108-11.016 c3.672,10.404,14.994,16.83,26.316,18.972c-0.306,6.426,0.306,12.852,1.836,18.972c-3.978,0.612-7.344,3.366-8.568,7.344 c-2.142,6.732,1.53,11.628,7.956,13.464c5.814,2.142,13.464,1.224,18.054-3.672c4.59-5.202,5.202-12.24,0.612-17.442 c-0.612-0.918-1.53-1.224-2.142-1.53c1.836-5.202,2.754-10.71,3.06-16.218c13.464-0.918,26.623-5.202,29.682-19.89 c0-0.612,0-1.224,0.306-2.142c64.872,4.896,131.887-9.792,196.146-1.53c0,0.612-0.307,0.918-0.307,1.53 c0.612,83.538,3.061,166.77,4.591,250.308c0.611,40.393,1.224,80.479,1.836,120.87c0.611,32.13-1.836,65.484,8.874,95.778 C521.15,541.065,519.927,540.454,518.702,540.454z"/> <path d="M173.84,314.931c-11.016-0.918-23.868-1.53-34.884,0c0.306-21.114,0.612-42.228,0.918-63.648 c0.306-16.83,3.366-34.578-3.672-50.184c-0.612-0.918-2.142-0.918-2.754,0c-7.65,15.3-4.896,33.048-5.202,50.184 c-0.306,22.338-0.918,44.676-1.224,67.014c0,4.896,4.896,6.732,8.262,5.508c0.612,0.612,1.224,0.918,1.836,1.225 c11.322,3.672,26.622,3.365,38.25,1.224C182.408,325.03,180.267,315.543,173.84,314.931z"/> <path d="M291.038,263.523c0-0.612-0.306-0.918-0.611-1.224c1.836-17.748,0.918-36.108-5.814-52.632 c-4.59-11.016-19.584-23.562-29.376-10.71c-0.306,0.306-0.612,0.918-0.612,1.224c-24.786,6.732-39.168,20.196-44.676,46.512 c-5.202,25.704-10.71,58.14,2.754,82.314c2.142,3.978,6.732,2.754,8.568-0.306c13.464,11.016,32.13,14.994,47.736,4.283 C290.427,318.603,296.547,286.78,291.038,263.523z M266.559,316.461c-13.464,14.994-30.6,8.568-45.288,0.612 c-2.754-20.809-3.06-38.556,0.612-60.282c1.224-8.262,2.448-18.054,6.426-25.398c7.038-12.546,21.114-18.36,33.048-24.48l0,0 c15.912-0.612,19.278,31.518,19.278,54.162c-0.612,0.612-0.918,1.224-0.918,2.142 C276.351,281.578,280.329,301.467,266.559,316.461z"/> <path d="M352.238,202.323c-3.06,31.824-7.038,63.648-12.24,95.472c-7.649-33.66-17.136-67.626-26.622-100.674 c-1.224-3.978-7.649-3.366-7.344,0.918c2.754,41.004,11.017,84.456,26.01,123.012c2.143,5.202,7.956,5.508,11.017,2.448 c1.224-0.306,2.142-1.224,2.754-3.061c11.016-38.861,17.442-78.03,20.502-118.116C366.62,193.449,353.156,193.449,352.238,202.323 z"/> <path d="M437.612,309.729c-7.649-1.224-14.688,1.225-22.338,2.754c-5.814,1.225-11.322,2.448-17.136,3.673 c1.224-7.345,1.836-14.994,2.142-22.645c5.508,0.306,11.322,0,16.83-0.306c6.12-0.307,11.016,0.611,15.912-3.366 c2.754-2.142,1.836-7.038-1.224-8.568c-5.509-3.06-10.71-0.918-16.524-0.306c-4.896,0.612-9.792,1.224-14.994,2.142 c0.307-26.315-2.448-53.55-4.284-78.642c10.404,0,20.196,1.53,30.601,3.366c9.485,1.836,13.464-12.24,3.978-14.688 c-11.628-2.754-24.174-2.142-36.107,0c-2.143-3.672-8.263-2.754-8.568,2.142c0,0.612,0,0.918,0,1.53 c-0.612,1.224-0.612,2.448-0.306,3.672c-2.448,38.862-8.568,84.456-0.612,122.4c0,1.224,0,2.448,0.612,3.672l0,0 c0.918,3.979,5.813,4.59,8.262,2.143c7.038-0.918,13.77-1.836,20.808-2.754c7.956-1.225,16.524-1.225,23.562-4.896 C443.427,318.91,443.12,310.341,437.612,309.729z"/> <path d="M229.227,378.885c-1.836-3.366-6.732-3.06-8.568,0c-10.404,17.136-11.016,36.72-34.578,42.84 c-22.338,5.814-64.26-16.218-48.654-44.676c1.836-3.366-2.754-7.65-5.508-4.284c-24.174,27.847,12.24,62.118,40.392,65.484 c-1.53,12.852-1.836,25.704-1.836,38.556c-0.306,14.994-2.142,31.519,3.366,45.288c2.142,5.508,11.322,7.038,12.852,0 c3.06-13.77-0.306-28.151-1.224-42.228c-1.224-14.076-1.224-28.152-2.754-42.229C208.725,434.271,243.608,406.731,229.227,378.885 z"/> <path d="M305.421,378.273c-0.612,0-1.225,0-1.836,0.307c-40.086-5.508-55.692,46.206-55.081,78.336 c0.306,26.01,14.688,93.33,55.081,67.932c23.562-2.448,35.495-31.212,38.25-55.08C344.589,439.78,345.507,383.782,305.421,378.273 z M304.809,512.301c-1.53-0.918-3.366-1.53-5.508-0.918c-36.108,7.038-34.578-48.348-33.354-67.626 c1.836-26.928,12.852-46.512,35.496-58.14c18.972,18.054,26.316,34.271,25.398,61.506 C325.923,467.931,324.393,501.286,304.809,512.301z"/> <path d="M434.553,384.087c-1.836-6.732-12.546-5.508-12.24,1.53c1.224,23.256,18.972,133.722-31.519,117.197 c-0.306,0-0.918,0-1.224,0c-37.944-17.441-4.284-90.27-29.682-117.81l0,0c-10.099,13.158-6.426,30.6-6.12,46.512 c0.306,18.055,0,37.332,2.754,55.08c3.672,26.316,21.114,37.944,47.43,33.048c2.143-0.306,3.366-1.529,4.284-2.754 c12.24-2.142,22.645-11.016,28.458-23.868C450.771,461.811,442.814,416.217,434.553,384.087z"/> <path d="M271.148,81.147c-4.896-2.142-9.486-4.59-14.076-7.038c-0.918-0.612-1.836,0.918-0.918,1.53 c4.59,2.754,9.18,5.202,14.382,7.344C271.455,83.29,272.066,81.454,271.148,81.147z"/> <path d="M274.82,79.005c-3.672-4.284-10.098-7.344-15.3-9.792c-1.224-0.612-2.142,0.918-0.918,1.53 c5.508,2.754,9.792,6.732,14.994,9.792C274.515,81.147,275.433,79.923,274.82,79.005z"/> </g> </g> </g>

</svg>